/* XPM */
static char *bitcoin128[] = {
/* columns rows colors chars-per-pixel */
"128 128 46 1 ",
"  c #00B7E9",
". c #00BBEA",
"X c #0BBBE9",
"o c #14BDE9",
"O c #1BBEEA",
"+ c #21BFEA",
"@ c #1DC0EA",
"# c #24C0EA",
"$ c #2CC2EA",
"% c #33C4EA",
"& c #3CC5EB",
"* c #42C7EB",
"= c #46C8EB",
"- c #4CC9EB",
"; c #53CBEB",
": c #5CCDEC",
"> c #63CEEC",
", c #68CFEC",
"< c #66D0EC",
"1 c #6CD1EC",
"2 c #73D2EC",
"3 c #7CD4ED",
"4 c #84D6ED",
"5 c #89D7ED",
"6 c #8CD8ED",
"7 c #94DAEE",
"8 c #9BDBEE",
"9 c #A4DDEE",
"0 c #AADFEE",
"q c #ADE0EF",
"w c #B3E1EF",
"e c #BCE3EF",
"r c #C4E5EF",
"t c #CAE7EF",
"y c #CBE7F0",
"u c #CEE8F0",
"i c #D4E9F0",
"p c #DCEBF0",
"a c #E4EDF1",
"s c #EBEFF1",
"d c #F0EFF1",
"f c #EEF0F1",
"g c #F1F1F2",
"h c #FEF4F2",
"j c #FFF8F2",
"k c None",
/* pixels */
"kkkkkkkkkkkkkkkkkkkkkkkkkkkkkkkkkkkkkkkkkkkkkkkkkkkkkkkkkkkkkkkkkkkkkkkkkkkkkkkkkkkkkkkkkkkkkkkkkkkkkkkkkkkkkkkkkkkkkkkkkkkkkkkk",
"kkkkkkkkkkkkkkkkkkkkkkkkkkkkkkkkkkkkkkkkkkkkkkkkkkkkkkkkkkkkkkkkkkkkkkkkkkkkkkkkkkkkkkkkkkkkkkkkkkkkkkkkkkkkkkkkkkkkkkkkkkkkkkkk",
"kkkkkkkkkkkkkkkkkkkkkkkkkkkkkkkkkkkkkkkkkkkkkkkkkkkkkkkkk.............kkkkkkkkkkkkkkkkkkkkkkkkkkkkkkkkkkkkkkkkkkkkkkkkkkkkkkkkkk",
"kkkkkkkkkkkkkkkkkkkkkkkkkkkkkkkkkkkkkkkkkkkkkkkkkkk...............@.........kkkkkkkkkkkkkkkkkkkkkkkkkkkkkkkkkkkkkkkkkkkkkkkkkkkk",
"kkkkkkkkkkkkkkkkkkkkkkkkkkkkkkkkkkkkkkkkkkkkkkk......@..........................kkkkkkkkkkkkkkkkkkkkkkkkkkkkkkkkkkkkkkkkkkkkkkkk",
"kkkkkkkkkkkkkkkkkkkkkkkkkkkkkkkkkkkkkkkkkkkk...........k.kk.k..k..k..k......@.......kkkkkkkkkkkkkkkkkkkkkkkkkkkkkkkkkkkkkkkkkkkk",
"kkkkkkkkkkkkkkkkkkkkkkkkkkkkkkkkkkkkkkkkk........k..k..k.kk.kk.k..k.kk.kk.k..k........kkkkkkkkkkkkkkkkkkkkkkkkkkkkkkkkkkkkkkkkkk",
"kkkkkkkkkkkkkkkkkkkkkkkkkkkkkkkkkkkkkkk.......k..k..k..k.kk.kk.k..k.kk.k..k..k..k........kkkkkkkkkkkkkkkkkkkkkkkkkkkkkkkkkkkkkkk",
"kkkkkkkkkkkkkkkkkkkkkkkkkkkkkkkkkkkk......@.k.kk.kk.k..k..k.kk.k..k.kk@k..k..k.kk.kk.@.....kkkkkkkkkkkkkkkkkkkkkkkkkkkkkkkkkkkkk",
"kkkkkkkkkkkkkkkkkkkkkkkkkkkkkkkkkk...@...k..k..k..k.kk.k..k@kk.k.kk.kk.k..k.kk.k..k..k.......kkkkkkkkkkkkkkkkkkkkkkkkkkkkkkkkkkk",
"kkkkkkkkkkkkkkkkkkkkkkkkkkkkkkkkk.....kk.kk.kk.k..k.kkkkkkkkkkkkkkkkkkkkkkk.k..k..k..k..k......kkkkkkkkkkkkkkkkkkkkkkkkkkkkkkkkk",
"kkkkkkkkkkkkkkkkkkkkkkkkkkkkkkk.....k..k..k.kk.kkkkkkkkkkkkkkkkkkkkkkkkkkkkkkkkk.kk.kk.kk.k.@...kkkkkkkkkkkkkkkkkkkkkkkkkkkkkkkk",
"kkkkkkkkkkkkkkkkkkkkkkkkkkkkk.......kk.kk.k..kkkkkkkkkkkkkkkkkkkkkkkkkkkkkkkkkkkkk..k..k..k.......kkkkkkkkkkkkkkkkkkkkkkkkkkkkkk",
"kkkkkkkkkkkkkkkkkkkkkkkkkkkk.....kk.kk..k.kkkkkkkkkkkkkkkkkkkkkkkkkkkkkkkkkkkkkkkkkkk.kk.kk.kk.....kkkkkkkkkkkkkkkkkkkkkkkkkkkkk",
"kkkkkkkkkkkkkkkkkkkkkkkkkkk....k..k..kk.kkkkkkkkkkkkkkkkkkkkkkkkkkkkkkkkkkkkkkkkkkkkkkk..k..k..k...@.kkkkkkkkkkkkkkkkkkkkkkkkkkk",
"kkkkkkkkkkkkkkkkkkkkkkkkk......kk.kk..kkkkkkkkkkkkkkkkkkkkkkkkkkkkkkkkkkkkkkkkkkkkkkkkkkkk.kk.kk......kkkkkkkkkkkkkkkkkkkkkkkkkk",
"kkkkkkkkkkkkkkkkkkkkkkkk.....k..k..kkkkkkkkkkkkkkkkkkkkkkkkkkkkkkkkkkkkkkkkkkkkkkkkkkkkkkkkk..k..kk....kkkkkkkkkkkkkkkkkkkkkkkkk",
"kkkkkkkkkkkkkkkkkkkkkkk......kk..k.kkkkkkkkkkkkkkkkkkkkkkkkk.......kkkkkkkkkkkkkkkkkkkkkkkkk.kk.kk......kkkkkkkkkkkkkkkkkkkkkkkk",
"kkkkkkkkkkkkkkkkkkkkkk....kk..kk.kkkkkkkkkkkkkkkkkkkk.....................kkkkkkkkkkkkkkkkkkkk..k..kk....kkkkkkkkkkkkkkkkkkkkkkk",
"kkkkkkkkkkkkkkkkkkkkk......kk..kkkkkkkkkkkkkkkkkkk............@...............kkkkkkkkkkkkkkkkkkk.kk..k....kkkkkkkkkkkkkkkkkkkkk",
"kkkkkkkkkkkkkkkkkkkk....kk.@kk.kkkkkkkkkkkkkkkk..................................kkkkkkkkkkkkkkk..k..kk.....kkkkkkkkkkkkkkkkkkkk",
"kkkkkkkkkkkkkkkkkkk...kk.kk..kkkkkkkkkkkkkkk.......................................kkkkkkkkkkkkkkk..kk..k....kkkkkkkkkkkkkkkkkkk",
"kkkkkkkkkkkkkkkkkk....kk..kkkkkkkkkkkkkkkk...........................................kkkkkkkkkkkkkkkk.@kk....kkkkkkkkkkkkkkkkkkk",
"kkkkkkkkkkkkkkkkk...kk.kk..kkkkkkkkkkkkk..............@................................kkkkkkkkkkkkk..kk..k...kkkkkkkkkkkkkkkkkk",
"kkkkkkkkkkkkkkkk....kkk.kkkkkkkkkkkkkkk..........@................+#.  .. ..... .........kkkkkkkkkkkkkk.@kk....kkkkkkkkkkkkkkkkk",
"kkkkkkkkkkkkkkk....k..kk.kkkkkkkkkkkk.............................7hr8>O......X...........kkkkkkkkkkkk..kk..k...kkkkkkkkkkkkkkkk",
"kkkkkkkkkkkkkk.....kk..kkkkkkkkkkkkk...@..........................rhghh: .. ..  ............kkkkkkkkkkkkk..kk....kkkkkkkkkkkkkkk",
"kkkkkkkkkkkkkk......kk.kkkkkkkkkkk........................@......Osgsds+... 7u4-#............kkkkkkkkkkk..kk......kkkkkkkkkkkkkk",
"kkkkkkkkkkkkk....kk..kkkkkkkkkkkk.........@..................... =hdsgy....Xihhhg& ...........kkkkkkkkkkkk...kk...kkkkkkkkkkkkkk",
"kkkkkkkkkkkk......kk.kkkkkkkkkkk..............@.......@........X 3hddh8 ...+ggsdao.............kkkkkkkkkkk.kk......kkkkkkkkkkkkk",
"kkkkkkkkkkkk...kk..kkkkkkkkkkkk................................. whddh<.X..:hddhe ..............kkkkkkkkkkkk..kk....kkkkkkkkkkkk",
"kkkkkkkkkkk.....kk@.kkkkkkkkkk..................................Xpggdg%... 7hsdh6 ...............kkkkkkkkkk..kk.....kkkkkkkkkkkk",
"kkkkkkkkkk...kk..kkkkkkkkkkkk................................ . %gffgpX....rhdsh;.................kkkkkkkkkkkk..kk...kkkkkkkkkkk",
"kkkkkkkkkk....kk..kkkkkkkkkk............X ....... ............. 1hsshq ...Oagggs#................@.kkkkkkkkkk..kk....kkkkkkkkkkk",
"kkkkkkkkk.....@kkkkkkkkkkkk.............:7o...  ...... ........ 2aghh3 X. =hsggy......@.............kkkkkkkkkkkk......kkkkkkkkkk",
"kkkkkkkkk...kk...kkkkkkkkk.....@........Ogp$..--o.... ..........XX%<9& .X 3hssh8.....................kkkkkkkkk...kk....kkkkkkkkk",
"kkkkkkkk.....kkkkkkkkkkkkk.............. 3huo -hs*..@. ....@... ...  .... 9hhhh>.X ...................kkkkkkkkkkkk.....kkkkkkkkk",
"kkkkkkkk...k...kkkkkkkkkk................Oah3  whw  3a8o..   .............o*3qp% .....................kkkkkkkkkk.@.kk...kkkkkkkk",
"kkkkkkk....kkk.kkkkkkkkk.........@....... 5hpo -hd* Oaj3  36& .............   X........................kkkkkkkkk.kkk....kkkkkkkk",
"kkkkkkk......kkkkkkkkkkk................. +ah2 .eh0. 4hp@ -jj* ............X....................@.......kkkkkkkkkk......kkkkkkkk",
"kkkkkk...kkk..kkkkkkkkk................. . 7hio ;hd& +ah2  whw ................. .......................kkkkkkkkk..kkk...kkkkkkk",
"kkkkkk.....kkkkkkkkkkk.@...................+sh, .eh9. 6hpo -hg& X....... o#.   ..........................kkkkkkkkkkk.....kkkkkkk",
"kkkkkk..kk...kkkkkkkkk..................... 7huX :hg& +ah1 .eh0 ....... +ugy8>$X   ......................kkkkkkkkk...kk...kkkkkk",
"kkkkk....kkkkkkkkkkkk....@..................+sh> Xrh8  7hio.;hd& ..... %phshhhdpq2*o.  ...................kkkkkkkkkkkk....kkkkkk",
"kkkkk....@.kkkkkkkkkk........................0hyX >hs$ $sh, Xeh9 .... *shdssssgghhhar5;+.   ..............kkkkkkkkkk.....@kkkkkk",
"kkkkk..kkk..kkkkkkkk.........@...............+dh: Xyh8  7huX :hd% .. ;ggsggsddggsssghhhsu8,%o..............kkkkkkkk..kkk...kkkkk",
"kkkk.....kkkkkkkkkkk....................... . 9hrX <hf$ $sh> Xyh9 . ,hgdggggggggddgdgssgghhgpw>............kkkkkkkkkkk.....kkkkk",
"kkkk...k...kkkkkkkkk......................... %gh; Xih7  8hyX >hs% :hdggggggggggggggdgdgddddghj6............kkkkkkkk...k...kkkkk",
"kkkk...kkkkkkkkkkkk....@.......................0he  1hs+ %sh: Xyh8 $sdddddggggggggggggggffggssgg+...........kkkkkkkkkkkkk...kkkk",
"kkk......kkkkkkkkkk...............@............&gh- oih6 .9hrX >hs+ 8hsdgdgggggggggggfggggggggsg%...........kkkkkkkkkk......kkkk",
"kkk.@.kk...kkkkkkkk........@....................qhe .2ha+ &dh; oih7 +hdddggggggggggggggggggfgshpX............kkkkkkkk@.kk...kkkk",
"kkk...kkkkkkkkkkkk..............................*hh= oph4  0he. 1hs+ 9hdgggggggggggggggggfggdgg=....@........kkkkkkkkkkkk...kkkk",
"kkk.......kkkkkkkk........................@..... qhq. 3haO *gh- oij6 +ddgfgggggggsgggggggggshp% .............kkkkkkkk.......kkkk",
"kkk..kkkk.kkkkkkkk.................@............ =hh= Oph4 .whe  3ha+X9hfggggggggggggggdgfgheo X.............kkkkkkkkkkkkk...kkk",
"kk.....kkkkkkkkkkk............................... ehq. 3hpO *hh* opj5 +hfffgggggggggggdgffj7. ............@...kkkkkkkkkk.....kkk",
"kk.......kkkkkkkk...............................  -hg* Oph3  whw  3haOXejfggggggggggggdsgj1...................kkkkkkkk.......kkk",
"kk...kkkkkkkkkkkk.@..........@..........@..........rh0  4hpo -hh* Oph4 *hfgggggggggddgdhd-....................kkkkkkkkkkkk...kkk",
"kk.......kkkkkkkk................................. ;hg& #ah2  whq  4hpo whsgggggggdggshi+....@..............@.kkkkkkkkk......kkk",
"kk...k...kkkkkkkk................................. .rh9 .6hio -hd* Oah3 -hsdfggggdggshwo X....................kkkkkkkk...k.@.kkk",
"kk...kkkkkkkkkkkk.................................. :hg% #sh1 .rh9  5hpo.ehsggggggdgh6.........................kkkkkkkkkkkk..kkk",
"kk.......kkkkkkkk.....@.............................Xyh8  7huX ;hd& +sh2 ;hsffgggdgg,..........................kkkkkkk.......kkk",
"kk..@kkkkkkkkkkkk................................... >hd$ $sh, Xrh9  7hiX rhfgggsha= ..........................kkkkkkkkkkkk..kkk",
"kk...kkkkkkkkkkk.............................@.......Xyh8  7hyX.:hs% +sh1 ;hfgfshy+ .........................@.kkkkkkkkkkk...kkk",
"kk.......kkkkkkk........@..........@.............. .. ,hs$ %dh: Xyh8  7huXXrhffhqXX............................kkkkkkkk......kkk",
"kk..kkkkkkkkkkkk...................................  XXih7  9hrX >hs% $sh, >hsh4..X............................kkkkkkkk......kkk",
"kk......kkkkkkkk............................... .. Xw, 2ha# %fh: Xuh7  8htX ih: ...............................kkkkkkkk......kkk",
"kk.......kkkkkkk.@............................... +uhu oph5 .9hr. 1hs# %sh> :;  ...............................kkkkkkkkkkkk..kkk",
"kk..kkkkkkkkkkkkk..........@.................... ;shsh; 3ha+ &gh; oih6 .9hr.  . ..........................@....kkkkkkk....@..kkk",
"kk.......kkkkkkkk.............................. 4hgsshe oph4  0he. 2ha# &gh; X.................................kkkkkkkk......kkk",
"kk.....kkkkkkkkkk.............................Owhdggggh& 3hpO *gh- oph4  0he ..................................kkkkkkkkkkkk..kkk",
"kk...kkkkkkkkkkkk...@....................... %phsggdgsh0 Oah3  whw. 2haO &gh; ................................kkkkkkkk.......kkk",
"kk..@....kkkkkkkk.......................... >ggsgggggdds% 4hpO =hd- Oph4  0je ................................kkkkkkkkkkkk...kkk",
"kk..@kkkkkkkkkkkk..........................7hgggdgggggfh7 Oah2  whw  3hp@ =gj=  .....................@........kkkkkkkk.kkk...kkk",
"kk...kkk.kkkkkkkk........................@rhsdgsgggggfgga+ 5hpo -hg* Oah3  wjw  ..............................kkkkkkkk.......kkk",
"kkk......kkkkkkkk....@..................*ajfsggggggfgggfh4 +ah2 .ehq  4hiO =gh= ..............................kkkkkkkkkkkk...kkk",
"kkk...kkkkkkkkkkkk.............@.......2ggsggggggggggggfgpo 7hio ;hg& +aj2  ejw ..............................kkkkkkk...kk..kkkk",
"kkk...k...kkkkkkkk.................. X8hffgfggggggggggggsh, $sh1 .rh9  6jio -jg*.............................kkkkkkkkk......kkkk",
"kkk.....kkkkkkkkkk................. #yhdgggggggggggggggfshyX 7hyX :hd& +ah1  ej0...................@.........kkkkkkkkkkkk...kkkk",
"kkk...kkkkkkkkkkkkk............... -shdsgfggggggggggggggdsh; $sh> Xrj8  7hio ;hd%................@@@........@kkkkkkkk.......kkkk",
"kkkk.......kkkkkkkk.......@.......2hgsggggggggggggggfgggdshe. 8htX >hd% +sh,  rjq................@@@........kkkkkkkkkkk....@kkkk",
"kkkk....kkkkkkkkkkk............. :hssggggggggggsggggsggggggg* %sh: Xuh8  7htX :hf$ .........................kkkkkkkk..kkk..kkkkk",
"kkkk...kk..kkkkkkkkk............ whsggggggggggggggggggggggsj0. 9hr. <hs$ %fh> Xth8 ...................@...@.kkkkkkkkk......kkkkk",
"kkkkk@.....kkkkkkkkk............ 0hsdggggggggggggggggggggsggd$ &gh; Xih7  8htX >hf$ .......................kkkkkkkkkkkk....kkkkk",
"kkkkk...kkkkkkkkkkkk....@....... -hhgssssgggggggggfggggggggfh8  0hr  1ha# %fh: Xth8 .......................kkkkkkkk...kk..kkkkkk",
"kkkkk...k...kkkkkkkkk............ >idhhhgssggggggggggggggggsh9. *gh- oij6 .9hr. <hs$......................kkkkkkkkkkk.....kkkkkk",
"kkkkkk....kkkkkkkkkkk..@.......... .$>8yghhgsssgdggggggdgggh6 .. qhe  2ha# &dh; ouh6 .....................kkkkkkkk..kkk...kkkkkk",
"kkkkkk...kk..kkkkkkkkk..............   X%<9ighhhdgfgggdgsgh1 ..X *gh- oph5  0he  1hs# ...........@.......kkkkkkkkkk....@.kkkkkkk",
"kkkkkk......kkkkkkkkkk.................X. .X%<9ighhggssshs-...... wjw  3hp@ &hh- oih5 .X.................kkkkkkkkkkkk....kkkkkkk",
"kkkkkkk...kkk.kkkkkkkkk..................... . X%,0pghhha% X..... -hh* Oph3  whw  2haO .................kkkkkkkkk...kk..kkkkkkkk",
"kkkkkkk...k..@kkkkkkkkkk.......@...............    X&1qe+ . ...... wjq  3jpO =hh- Opj4 .................kkkkkkkkkkk.....kkkkkkkk",
"kkkkkkkk....kkkkkkkkkkkk......................X..X..  ............ -hd* @ph3 .whw  3ha@ ...............kkkkkkkkk..kk...@kkkkkkkk",
"kkkkkkkk...kk...kkkkkkkkk............................XX............ ehq  4jpo -hh= Oph3 ..............kkkkkkkkkkk......kkkkkkkkk",
"kkkkkkkkk.....kkkkkkkkkkkk........................X#X  .... ..... . ;hj* #ah2  ej0  4hpo...........@..kkkkkkkkk.kkk....kkkkkkkkk",
"kkkkkkkkk....kk..kkkkkkkkk....................... $si9,%.......X.....$1:  6jpo ;hf& @ah3X............kkkkkkkkkk...k...kkkkkkkkkk",
"kkkkkkkkkk...k..kkkkkkkkkkk.................... . :hghhe......   ....   ..O4t:..rj9  5huo ..........kkkkkkkkkkkkk.....kkkkkkkkkk",
"kkkkkkkkkk.....kk.kkkkkkkkkk....................X 7hssh4 X. &y7:$X........   X. =pg* Opj< . .......kkkkkkkkkk...kk...kkkkkkkkkkk",
"kkkkkkkkkkk...kk..kkkkkkkkkkk.....................rhssh; X. 2hhhh7 .............  &+..%pao........kkkkkkkkkkkkk.....kkkkkkkkkkkk",
"kkkkkkkkkkkk.....kk.kkkkkkkkkk.@.................@sgggs+... 9hssh3 ................ ...X3&.......kkkkkkkkkkk..kk....kkkkkkkkkkkk",
"kkkkkkkkkkkk.@..kk..kkkkkkkkkkk..................-hsshy ...Xihsdh&..............................kkkkkkkkkkkkk..k...kkkkkkkkkkkkk",
"kkkkkkkkkkkkk......kkkkkkkkkkkkk.@.........@.....4hssh8 ...$sgsgpo....@........................kkkkkkkkkkk..kk....kkkkkkkkkkkkkk",
"kkkkkkkkkkkkkk...kk...kkkkkkkkkkk............... whddh>... :hsshe.............................kkkkkkkkkkkkk..k....kkkkkkkkkkkkkk",
"kkkkkkkkkkkkkk......kk.kkkkkkkkkkk..............oagssg+ .X 7hgsh4 ...........................kkkkkkkkkkk..kk.....kkkkkkkkkkkkkkk",
"kkkkkkkkkkkkkkk....kk..kkkkkkkkkkkkk............+ihhhpo....yhsfh;  .........................kkkkkkkkkkkkk..kk...kkkkkkkkkkkkkkkk",
"kkkkkkkkkkkkkkkk...k..kk.kkkkkkkkkkkk............X+:85... Oagsgs+  .........@.............kkkkkkkkkkkkk.kk..@..kkkkkkkkkkkkkkkkk",
"kkkkkkkkkkkkkkkkk....kk..kkkkkkkkkkkkk.............  .... *hhhhy.........................kkkkkkkkkkkkkk..kk...kkkkkkkkkkkkkkkkkk",
"kkkkkkkkkkkkkkkkkk...k.@kk.kkkkkkkkkkkkk........ .........X&18p7 ......................kkkkkkkkkkkkkk@kk......kkkkkkkkkkkkkkkkkk",
"kkkkkkkkkkkkkkkkkkk....kk..kkkkkkkkkkkkkkk@................   XX.....................kkkkkkkkkkkkkk.kk.kk....kkkkkkkkkkkkkkkkkkk",
"kkkkkkkkkkkkkkkkkkkk...k..kk.kkkkkkkkkkkkkkk................X......................kkkkkkkkkkkkkkkk..kk.....kkkkkkkkkkkkkkkkkkkk",
"kkkkkkkkkkkkkkkkkkkkk....kk..kkkkkkkkkkkkkkkkk...................................kkkkkkkkkkkkkkkk.kk.kk....kkkkkkkkkkkkkkkkkkkkk",
"kkkkkkkkkkkkkkkkkkkkkk......kk.kkkkkkkkkkkkkkkkkk.............................kkkkkkkkkkkkkkkkkkk..kk.....kkkkkkkkkkkkkkkkkkkkkk",
"kkkkkkkkkkkkkkkkkkkkkkk....kk.kk.kkkkkkkkkkkkkkkkkkkk......................kkkkkkkkkkkkkkkkkkkk.kk..k....kkkkkkkkkkkkkkkkkkkkkkk",
"kkkkkkkkkkkkkkkkkkkkkkkk......k..kkkkkkkkkkkkkkkkkkkkkkkkk...........kkkkkkkkkkkkkkkkkkkkkkk..k..kk....kkkkkkkkkkkkkkkkkkkkkkkkk",
"kkkkkkkkkkkkkkkkkkkkkkkkk....kk.kk@.kkkkkkkkkkkkkkkkkkkkkkkkkkkkkkkkkkkkkkkkkkkkkkkkkkkkkk.kk.kk...@..kkkkkkkkkkkkkkkkkkkkkkkkkk",
"kkkkkkkkkkkkkkkkkkkkkkkkkk......k..kk.kkkkkkkkkkkkkkkkkkkkkkkkkkkkkkkkkkkkkkkkkkkkkkkkkkkk..k..k.....kkkkkkkkkkkkkkkkkkkkkkkkkkk",
"kkkkkkkkkkkkkkkkkkkkkkkkkkkk......kk..k.kkkkkkkkkkkkkkkkkkkkkkkkkkkkkkkkkkkkkkkkkkkkkkkk.kk.kk......kkkkkkkkkkkkkkkkkkkkkkkkkkkk",
"kkkkkkkkkkkkkkkkkkkkkkkkkkkkk.....k..kk.kk.kkkkkkkkkkkkkkkkkkkkkkkkkkkkkkkkkkkkkkkkkk..k..k.......kkkkkkkkkkkkkkkkkkkkkkkkkkkkkk",
"kkkkkkkkkkkkkkkkkkkkkkkkkkkkkkk......k..k..k.kkkkkkkkkkkkkkkkkkkkkkkkkkkkkkkkkkkkkk.kk.kk.k......kkkkkkkkkkkkkkkkkkkkkkkkkkkkkkk",
"kkkkkkkkkkkkkkkkkkkkkkkkkkkkkkkk.......kk.kk.k..kkkkkkkkkkkkkkkkkkkkkkkkkkkkkk.k..k..k@.k.....@kkkkkkkkkkkkkkkkkkkkkkkkkkkkkkkkk",
"kkkkkkkkkkkkkkkkkkkkkkkkkkkkkkkkkk........k..k..k.kk.kkkkkkkkkkkkkkkkkkkkkk..k.kk.kk.k.......kkkkkkkkkkkkkkkkkkkkkkkkkkkkkkkkkkk",
"kkkkkkkkkkkkkkkkkkkkkkkkkkkkkkkkkkkk........kk.kk.k..k..k.kk.k.kk.kk.k.kk.k..k..k.kk.......kkkkkkkkkkkkkkkkkkkkkkkkkkkkkkkkkkkkk",
"kkkkkkkkkkkkkkkkkkkkkkkkkkkkkkkkkkkkkk.....@...k..k..k.kk.k..k.kk.k..k.kk.kk.k..k........kkkkkkkkkkkkkkkkkkkkkkkkkkkkkkkkkkkkkkk",
"kkkkkkkkkkkkkkkkkkkkkkkkkkkkkkkkkkkkkkkk..........k.kk.kk.k..k.kk.k..k@.k.kk.k.........kkkkkkkkkkkkkkkkkkkkkkkkkkkkkkkkkkkkkkkkk",
"kkkkkkkkkkkkkkkkkkkkkkkkkkkkkkkkkkkkkkkkkkk......@.....k..k..k.kk.kk.k..k...........kkkkkkkkkkkkkkkkkkkkkkkkkkkkkkkkkkkkkkkkkkkk",
"kkkkkkkkkkkkkkkkkkkkkkkkkkkkkkkkkkkkkkkkkkkkkk.............@.....................kkkkkkkkkkkkkkkkkkkkkkkkkkkkkkkkkkkkkkkkkkkkkkk",
"kkkkkkkkkkkkkkkkkkkkkkkkkkkkkkkkkkkkkkkkkkkkkkkkkk...........................kkkkkkkkkkkkkkkkkkkkkkkkkkkkkkkkkkkkkkkkkkkkkkkkkkk",
"kkkkkkkkkkkkkkkkkkkkkkkkkkkkkkkkkkkkkkkkkkkkkkkkkkkkkkkk...............kkkkkkkkkkkkkkkkkkkkkkkkkkkkkkkkkkkkkkkkkkkkkkkkkkkkkkkkk",
"kkkkkkkkkkkkkkkkkkkkkkkkkkkkkkkkkkkkkkkkkkkkkkkkkkkkkkkkkkkkkkkkkkkkkkkkkkkkkkkkkkkkkkkkkkkkkkkkkkkkkkkkkkkkkkkkkkkkkkkkkkkkkkkk",
"kkkkkkkkkkkkkkkkkkkkkkkkkkkkkkkkkkkkkkkkkkkkkkkkkkkkkkkkkkkkkkkkkkkkkkkkkkkkkkkkkkkkkkkkkkkkkkkkkkkkkkkkkkkkkkkkkkkkkkkkkkkkkkkk"
};
