/* XPM */
static char *bitcoin64[] = {
/* columns rows colors chars-per-pixel */
"64 64 45 1 ",
"  c #00B6E9",
". c #00BBEA",
"X c #0BBBE9",
"o c #13BDEA",
"O c #1ABEEA",
"+ c #21BFEA",
"@ c #1DC0EA",
"# c #24C1EA",
"$ c #2CC3EB",
"% c #34C4EB",
"& c #3CC6EB",
"* c #3FC8EB",
"= c #42C7EB",
"- c #44C8EB",
"; c #4CCAEC",
": c #54CCEC",
"> c #5CCEEC",
", c #63CFEC",
"< c #66D0EC",
"1 c #6BD1ED",
"2 c #73D3ED",
"3 c #7BD5ED",
"4 c #82D7ED",
"5 c #87D8EE",
"6 c #8CD9EE",
"7 c #93DBEE",
"8 c #9CDDEE",
"9 c #A4DEEE",
"0 c #A7E0EF",
"q c #ACE0EF",
"w c #B5E2EF",
"e c #BDE4EF",
"r c #C2E5EF",
"t c #C5E6F0",
"y c #C9E7F0",
"u c #CEE8F0",
"i c #D3EAF0",
"p c #DCECF0",
"a c #E4EEF1",
"s c #EBEFF1",
"d c #EEF0F1",
"f c #F2F1F2",
"g c #FDF4F2",
"h c #FFF9F3",
"j c None",
/* pixels */
"jjjjjjjjjjjjjjjjjjjjjjjjjjjjjjjjjjjjjjjjjjjjjjjjjjjjjjjjjjjjjjjj",
"jjjjjjjjjjjjjjjjjjjjjjjjjjj..........jjjjjjjjjjjjjjjjjjjjjjjjjjj",
"jjjjjjjjjjjjjjjjjjjjjjj...........@......jjjjjjjjjjjjjjjjjjjjjjj",
"jjjjjjjjjjjjjjjjjjjj...@..jjjjjjjjjjjj......jjjjjjjjjjjjjjjjjjjj",
"jjjjjjjjjjjjjjjjjj....jj....jjjjjjjj..jjjj....jjjjjjjjjjjjjjjjjj",
"jjjjjjjjjjjjjjjj...jjj..jjjjjjjjjjjjjjjj..j.....jjjjjjjjjjjjjjjj",
"jjjjjjjjjjjjjj....j..jjjjjjjjjjjjjjjjjjjjjjj.j...jjjjjjjjjjjjjjj",
"jjjjjjjjjjjjj....j.jjjjjjjjjjjjjjjjjjjjjjjjjj.jj...jjjjjjjjjjjjj",
"jjjjjjjjjjjj..j.jjjjjjjjjjjjjjjjjjjjjjjjjjjjjj..j...jjjjjjjjjjjj",
"jjjjjjjjjjj..j.jjjjjjjjjjj............jjjjjjjjjj.j...jjjjjjjjjjj",
"jjjjjjjjjj..j.jjjjjjjjj..........X.......jjjjjjjj.j...jjjjjjjjjj",
"jjjjjjjjj..j.jjjjjjjj......................jjjjjjj.j...jjjjjjjjj",
"jjjjjjjj..j.jjjjjjj..............<,+.. ......jjjjjj.j.@.jjjjjjjj",
"jjjjjjj..j.jjjjjjj..............Xah7 X:*X.....jjjjjj.j...jjjjjjj",
"jjjjjj...jjjjjjj............... %fg> osh4......jjjjjj.j..jjjjjjj",
"jjjjjj..j.jjjjj......@......... <gs% =fg: ......jjjjjj.j..jjjjjj",
"jjjjj..j.jjjjj......X ......... 0hiX 2gs#........jjjjjj.j..jjjjj",
"jjjj..j.jjjjj.......2: $X  ...X.:q6. qhu..........jjjjjj...jjjjj",
"jjjj...jjjjjj....@..%fo5e ,%.X .  ...2u7 ..........jjjjj.j..jjjj",
"jjjj..jjjjjj........ q8Xf%<a 7, X...X .X.........@..jjjjjj..jjjj",
"jjj.@jjjjjj......... %fo6e a:-fX....Xo   ...X.......jjjjj.j..jjj",
"jjj...jjjjj.......... w7Xf+1i y4 X.Xqsq4;@.  ........jjjjjj..jjj",
"jj..j.jjjj........... &fX7w s;=sX oegfgggst7>$X .....jjjjj...jjj",
"jj..jjjjjj.@.......... e6Xg+1i i2 ihsffssfgggsp2......jjjjjj..jj",
"jj..jjjjjj.............=fX8q s=;aOpfsfffffsssdgf@.....jjjjjj.@jj",
"jj.j.jjjj.............. t4of+2u p,,hsffffdfffsgw......jjjjjj..jj",
"j..jjjjjj....@..........;sX9q s&:aoifffffffsfg9X.......jjjj...jj",
"j..jjjjjj............... y3ofO4y p>,gsfsffffg3.........jjjjj..jj",
"j..jjjjjj............... ;s.q8 f%>pOaffffsgf>..........jjjjjj..j",
"j.@.jjjj..@.............. u2+fo5e a:1gsfsgp% .........@jjjjjj..j",
"j...jjjj..............@.. :s w7Xf$<uOafsgeO ...........jjjjjj..j",
"j...jjjj................X. i1$fo7w s;3gg8X.............jjjjj...j",
"j...jjjj................ o+>s e6of+2u+s3 ..............jjjj....j",
"j...jjjj..............X oeg+i<+fX8q s:O ...............jjjjjj..j",
"j..jjjjj.............X %pfg1:a t4of+2i ................jjjjjj.@j",
"j..jjjjj............. >ffsfpop,%sX90 s; ...............jjjjjj..j",
"j..jjjjjj..@......X.X6gfffsg:>p y4OfO3y ...............jjjjjj.jj",
"j..jjjjjj......... OehsfffsgyXa;*s.q9 s- ...........@..jjjj...jj",
"jj..jjjjj........ *agsffsffsg=<i u2+fo5y...............jjjjj..jj",
"jj.@.jjjj....... <gfsfffffffgwXa;-s w7Xs=.............jjjjjj..jj",
"jj..jjjjjj....X.-gssfffffffsfg+2i i1+gX7e ............jjjjjj..jj",
"jj..jjjjjj......=hhffsddffffsgqXs*;a w7Xf% ...........jjjj...jjj",
"jjj...jjjjj..... ;8ufghffsssfg6 5y p,$fX8w .....@....jjjjjj..jjj",
"jjj...jjjjj......  X$,8ifgggg< .os&:a e5of% .........jjjjj...jjj",
"jjj..j.jjjjj.....X..   X$,0i: .. 6t p>%f 99 X.......jjjjj.@.jjjj",
"jjjj..jjjjjj.........X..    ...X Of*>p y3Of$ ......jjjjj.j..jjjj",
"jjjj...jjjjjj............:1$..    <3 a>*f 00 X.....jjjjjj..jjjjj",
"jjjjj...jjjjjj.......... wht..=-o... %; t2Of$.....jjjjj.j..jjjjj",
"jjjjjj...jjjjjj.........opg7..thq.......X@ :1....jjjjj.j..jjjjjj",
"jjjjjj.@j.jjjjjj...@....%fg> Opg6 ..............jjjjjjj..jjjjjjj",
"jjjjjjj..j.jjjjjj.......2gf$ =fg: X............jjjjjjj...jjjjjjj",
"jjjjjjjj..jjjjjjjj......*9qX 3gs+.............jjjjjjj...jjjjjjjj",
"jjjjjjjjj...jjjjjjjj........ >yeX...........jjjjjjjj...jjjjjjjjj",
"jjjjjjjjjj...jjjjjjjj........ .X..........jjjjjjjjj..@jjjjjjjjjj",
"jjjjjjjjjjj...jjjjjjjjjj................jjjjjjjj.j...jjjjjjjjjjj",
"jjjjjjjjjjjj...j.jjjjjjjjjjj........jjjjjjjjjjj.j...jjjjjjjjjjjj",
"jjjjjjjjjjjjj...j.jjjjjjjjjjjjjjjjjjjjjjjjjjjj.j...jjjjjjjjjjjjj",
"jjjjjjjjjjjjjj@..j..jjjjjjjjjjjjjjjjjjjjjjjj.j...jjjjjjjjjjjjjjj",
"jjjjjjjjjjjjjjjj....jjjjjjjjjjjjjjjjjjjjjjj.....jjjjjjjjjjjjjjjj",
"jjjjjjjjjjjjjjjjjj....j.jjjjjjjjjjjjjjj.jj@...jjjjjjjjjjjjjjjjjj",
"jjjjjjjjjjjjjjjjjjjj......jjj..jj..j.j......jjjjjjjjjjjjjjjjjjjj",
"jjjjjjjjjjjjjjjjjjjjjj@..................jjjjjjjjjjjjjjjjjjjjjjj",
"jjjjjjjjjjjjjjjjjjjjjjjjjj...........jjjjjjjjjjjjjjjjjjjjjjjjjjj",
"jjjjjjjjjjjjjjjjjjjjjjjjjjjjjjjjjjjjjjjjjjjjjjjjjjjjjjjjjjjjjjjj"
};
