/* XPM */
static char *bitcoin32[] = {
/* columns rows colors chars-per-pixel */
"32 32 159 2 ",
"   c #00B3E8",
".  c #00B5E9",
"X  c #00B6E9",
"o  c #00B7E9",
"O  c #00B8E9",
"+  c #00B9E9",
"@  c #01B9E9",
"#  c #02B9E9",
"$  c #03B9E9",
"%  c #00BAE9",
"&  c #01BAE9",
"*  c #01BBE9",
"=  c #02BAE9",
"-  c #00BAEA",
";  c #00BBEA",
":  c #01BBEA",
">  c #02BAEA",
",  c #02BBEA",
"<  c #03BBEA",
"1  c #04B9E9",
"2  c #04BAE9",
"3  c #04BBE9",
"4  c #07BBE9",
"5  c #04BBEA",
"6  c #05BBEA",
"7  c #04BCEA",
"8  c #05BCEA",
"9  c #08BAE9",
"0  c #08BCEA",
"q  c #0BBCEA",
"w  c #10BDEA",
"e  c #11BDEA",
"r  c #14BEEA",
"t  c #15BFEA",
"y  c #1BBFEA",
"u  c #1CBFEA",
"i  c #25BFEA",
"p  c #19C0EA",
"a  c #1BC0EA",
"s  c #1EC1EA",
"d  c #1FC1EA",
"f  c #20C0EA",
"g  c #21C0EA",
"h  c #22C0EA",
"j  c #25C1EA",
"k  c #24C2EA",
"l  c #24C2EB",
"z  c #25C2EB",
"x  c #25C3EB",
"c  c #26C2EA",
"v  c #28C3EB",
"b  c #2AC2EB",
"n  c #2BC3EB",
"m  c #2CC3EB",
"M  c #2FC4EB",
"N  c #38C6EB",
"B  c #39C6EB",
"V  c #39C7EB",
"C  c #3BC7EB",
"Z  c #3CC6EB",
"A  c #3FC7EB",
"S  c #46C9EB",
"D  c #45C9EC",
"F  c #45CAEC",
"G  c #4BCAEC",
"H  c #4DCBEC",
"J  c #4FCBEC",
"K  c #52CDEC",
"L  c #54CCEC",
"P  c #54CDEC",
"I  c #55CDEC",
"U  c #5ACDEC",
"Y  c #5BCFEC",
"T  c #5CCEEC",
"R  c #5DCFEC",
"E  c #5ECFEC",
"W  c #60D0EC",
"Q  c #68D0EC",
"!  c #68D0ED",
"~  c #6BD1ED",
"^  c #6BD2ED",
"/  c #6CD1ED",
"(  c #6DD1ED",
")  c #6CD2ED",
"_  c #6DD2ED",
"`  c #6FD2ED",
"'  c #70D2ED",
"]  c #71D2ED",
"[  c #71D3ED",
"{  c #72D3ED",
"}  c #73D3ED",
"|  c #74D3ED",
" . c #75D3ED",
".. c #76D4ED",
"X. c #77D4ED",
"o. c #78D4ED",
"O. c #79D4ED",
"+. c #79D5ED",
"@. c #7AD5ED",
"#. c #7BD5ED",
"$. c #7CD5ED",
"%. c #7CD6ED",
"&. c #7ED6ED",
"*. c #81D7ED",
"=. c #83D7ED",
"-. c #84D7ED",
";. c #85D7ED",
":. c #86D7ED",
">. c #85D8EE",
",. c #86D8EE",
"<. c #87D8EE",
"1. c #88D8EE",
"2. c #8CD9EE",
"3. c #8FDAEE",
"4. c #92DBEE",
"5. c #97DCEE",
"6. c #99DCEE",
"7. c #9BDEEF",
"8. c #9DDDEE",
"9. c #ABE0EF",
"0. c #ACE1EF",
"q. c #ADE2EF",
"w. c #B8E4EF",
"e. c #BAE4EF",
"r. c #B9E5F0",
"t. c #BFE5F0",
"y. c #C2E6F0",
"u. c #C2E7F0",
"i. c #C9E7F0",
"p. c #CEE8F0",
"a. c #CEEAF0",
"s. c #D2EAF0",
"d. c #D4EAF0",
"f. c #E1EFF1",
"g. c #E5EDF1",
"h. c #EBEFF1",
"j. c #ECEFF1",
"k. c #EDF0F1",
"l. c #EFF0F1",
"z. c #F2F0F1",
"x. c #F2F1F1",
"c. c #F0F0F2",
"v. c #F0F1F2",
"b. c #F1F1F2",
"n. c #F2F1F2",
"m. c #F6F1F2",
"M. c #F5F2F2",
"N. c #F8F2F2",
"B. c #F9F3F2",
"V. c #FAF3F2",
"C. c #FDF3F2",
"Z. c #FBF4F2",
"A. c #FDF4F2",
"S. c #FFF4F2",
"D. c #FFF5F2",
"F. c #FFF6F2",
"G. c #FFF7F3",
"H. c #FFFAF3",
"J. c None",
/* pixels */
"J.J.J.J.J.J.J.J.J.J.J.J.J.J.J.J.J.J.J.J.J.J.J.J.J.J.J.J.J.J.J.J.",
"J.J.J.J.J.J.J.J.J.J.J.; ; ; ; ; ; ; ; ; ; J.J.J.J.J.J.J.J.J.J.J.",
"J.J.J.J.J.J.J.J.; ; ; ; J.J.J.J.J.J.J.J.; ; ; J.J.J.J.J.J.J.J.J.",
"J.J.J.J.J.J.J.; ; J.J.J.J.J.J.J.J.J.J.J.J.J.J.; ; J.J.J.J.J.J.J.",
"J.J.J.J.J.J.; ; J.J.J.J.J.J.; ; 3 8 J.J.J.J.J.J.; ; J.J.J.J.J.J.",
"J.J.J.J.J.; J.J.J.J.J.; ; ; ; ; o ; ; ; ; J.J.J.J.; ; J.J.J.J.J.",
"J.J.J.J.; J.J.J.J.; ; ; ; ; ; o T 2.; v 9 ; ; J.J.J.; ; J.J.J.J.",
"J.J.J.; ; J.J.J.; ; o ; ; ; 3 o r.q.9 z.B ; ; ; J.J.J.; ; J.J.J.",
"J.J.; ; J.J.J.; ; 3 M e q ; o o q.J F Z.e ; ; ; ; J.J.J.; J.J.J.",
"J.J.; J.J.J.; ; ; o ^ o.Q L B i o ; y G o ; 3 3 ; ; J.J.J.; J.J.",
"J.; ; J.J.J.; ; ; ; h ;.{ $.$.o.o 9 W S d ; o o ; ; J.J.J.; J.J.",
"J.; J.J.J.; ; ; ; ; o / o.{ { *.B 5.D.C.j.i.6.I ; ; ; J.J.; ; J.",
"J.; J.J.J.; ; ; ; ; o c ;.{ X.X.o.y.B.h.z.m.D.f.q ; ; J.J.J.; J.",
"J.; J.J.; ; ; ; ; ; 3 o / o.X.X.{ *.m.j.h.C.d.v ; ; ; J.J.J.; J.",
"; ; J.J.; ; ; ; ; ; 3 ; m 1.{ o.X.{ y.B.C.w.r $ ; ; ; ; J.J.; J.",
"; ; J.J.; ; ; ; ; ; o 3 o / o.X.{ X.,.D.4.$ $ ; $ ; ; ; J.J.; J.",
"; ; J.J.; ; ; ; ; ; 3 o A $.X.X.X.X.$.J $ O ; O * * ; ; J.J.; J.",
"; ; J.J.; ; ; ; ; ; o T D.y./ o.X.{ *.i $ ; O ; * * ; ; J.J.; J.",
"J.; J.J.; ; ; ; ; 9 4.C.j.b.o...X.X.o.{ $ ; ; ; * ; ; J.J.J.; J.",
"J.; J.J.J.; ; ; u w.C.h.j.D.9.^ X.X.{ ;.i $ ; ; * ; ; J.J.J.; J.",
"J.; J.J.J.; 3 o 6.H.B.B.b.k.b...X.X.X.o.~ o ; ; ; ; ; J.J.; ; J.",
"J.; ; J.J.; ; ; r T 6.p.b.D.s.d { X.X.{ *.i o ; ; ; J.J.J.; J.J.",
"J.J.; J.J.J.o ; ; o o 3 c K u   B 1.o.o.o.~ o 3 ; * J.J.J.; J.J.",
"J.J.; ; J.J.J.; ; 3 3 o A ;.o c e v S U / ;.u ; ; J.J.J.; J.J.J.",
"J.J.J.; J.J.J.J.; ; 3 o 8.p.; g.L o 3 ; 9 i y ; J.J.J.; ; J.J.J.",
"J.J.J.J.; J.J.J.J.; ; ; 8./ c C.c o 3 ; ; ; ; J.J.J.J.; J.J.J.J.",
"J.J.J.J.J.; J.J.J.J.; ; ; ; y E 3 ; ; ; ; ; J.J.J.J.; J.J.J.J.J.",
"J.J.J.J.J.J.; J.J.J.J.J.J.; ; o ; ; ; J.J.J.J.J.; ; J.J.J.J.J.J.",
"J.J.J.J.J.J.J.; ; J.J.J.J.J.J.J.J.J.J.J.J.J.J.; ; J.J.J.J.J.J.J.",
"J.J.J.J.J.J.J.J.; ; ; J.J.J.J.J.J.J.J.J.; ; ; ; J.J.J.J.J.J.J.J.",
"J.J.J.J.J.J.J.J.J.J.; ; ; ; ; ; ; ; ; ; ; J.J.J.J.J.J.J.J.J.J.J.",
"J.J.J.J.J.J.J.J.J.J.J.J.J.J.J.; ; J.J.J.J.J.J.J.J.J.J.J.J.J.J.J."
};
