/* XPM */
static char *bitcoin16[] = {
/* columns rows colors chars-per-pixel */
"16 16 72 1 ",
"  c #00B6E9",
". c #00B7E9",
"X c #00B8E9",
"o c #00B9E9",
"O c #00BAE9",
"+ c #01BAE9",
"@ c #02BAE9",
"# c #00BAEA",
"$ c #00BBEA",
"% c #01BBEA",
"& c #02BBEA",
"* c #03BBEA",
"= c #06BBEA",
"- c #04BCEA",
"; c #06BCEA",
": c #08BCEA",
"> c #0ABCEA",
", c #0ABDEA",
"< c #0CBCEA",
"1 c #0DBCEA",
"2 c #12BEEA",
"3 c #16BCEA",
"4 c #19BFEA",
"5 c #1DC0EA",
"6 c #1DC1EA",
"7 c #1FC1EA",
"8 c #24C2EB",
"9 c #2FC4EB",
"0 c #30C5EB",
"q c #34C5EB",
"w c #38C7EB",
"e c #3CC6EB",
"r c #3DC6EB",
"t c #42C8EB",
"y c #42C9EB",
"u c #45CAEC",
"i c #46CAEC",
"p c #53CDEC",
"a c #59CEEC",
"s c #5CCFEC",
"d c #5ECEEC",
"f c #63D0EC",
"g c #64D0EC",
"h c #69D1ED",
"j c #6BD2ED",
"k c #6CD2ED",
"l c #6DD2ED",
"z c #6FD3ED",
"x c #71D3ED",
"c c #73D3ED",
"v c #72D4ED",
"b c #73D4ED",
"n c #78D5ED",
"m c #7CD6ED",
"M c #82D7EE",
"N c #84D8EE",
"B c #88D8EE",
"V c #8EDAEE",
"C c #90DAEE",
"Z c #93DBEE",
"A c #93DCEE",
"S c #98DCEE",
"D c #9CDDEF",
"F c #B6E3EF",
"G c #CEE8F0",
"H c #D7EBF1",
"J c #E6EEF1",
"K c #EEF0F1",
"L c #FDF5F2",
"P c #FFF5F2",
"I c #FFF9F3",
"U c None",
/* pixels */
"UUUUUU$$$$UUUUUU",
"UUUU$UUUUUU$UUUU",
"UUU$UU$+$.UU$UUU",
"UU$U$++=cp7$U$UU",
"U$U$$t97qd3$$U$U",
"UUU$$iBhrDct$UUU",
"$U$$$1cxSPPF$$U$",
"$U$$= rmhGZ$$$U$",
"$U$$.7Zbna +$+U$",
"$U$$iJPVxk1+$$U$",
"UUU$BHKCgBt$$UUU",
"U$U$.$d2wdx:$U$U",
"UUUU$:kB0.2:U$UU",
"UUUUUU$8<$UU$UUU",
"UUUU$UUUUUU$UUUU",
"UUUUUU$$$$UUUUUU"
};
